<?xml version="1.0" encoding="UTF-8"?>
<svg width="32" height="32" viewBox="0 0 32 32" fill="none" xmlns="http://www.w3.org/2000/svg">
  <!-- Shield outline for better visibility in tray -->
  <path d="M16 4 C20 4 22 6 22 8 L22 18 C22 22 20 24 16 28 C12 24 10 22 10 18 L10 8 C10 6 12 4 16 4 Z" fill="#A3E635" stroke="#0F172A" stroke-width="1"/>
  
  <!-- Lock -->
  <rect x="13" y="14" width="6" height="8" rx="1" fill="#0F172A"/>
  <rect x="13.5" y="14.5" width="5" height="7" rx="0.5" fill="#F8FAFC"/>
  
  <!-- Lock shackle -->
  <path d="M14 14 L14 12 C14 11 15 10 16 10 C17 10 18 11 18 12 L18 14" stroke="#0F172A" stroke-width="1" fill="none"/>
  
  <!-- OTP dots -->
  <circle cx="14.5" cy="18" r="0.8" fill="#A3E635"/>
  <circle cx="16" cy="18" r="0.8" fill="#A3E635"/>
  <circle cx="17.5" cy="18" r="0.8" fill="#A3E635"/>
</svg>
